<svg width="23" height="24" viewBox="0 0 23 24" fill="none" xmlns="http://www.w3.org/2000/svg">
<path d="M2.75 10.75C2.0625 10.75 1.47375 10.505 0.983752 10.015C0.493752 9.525 0.249169 8.93667 0.250002 8.25V3.25C0.250002 2.5625 0.495002 1.97375 0.985002 1.48375C1.475 0.993752 2.06334 0.749169 2.75 0.750002H7.75C8.4375 0.750002 9.02625 0.995002 9.51625 1.485C10.0063 1.975 10.2508 2.56334 10.25 3.25V8.25C10.25 8.9375 10.005 9.52625 9.515 10.0163C9.025 10.5063 8.43667 10.7508 7.75 10.75H2.75ZM2.75 23.25C2.0625 23.25 1.47375 23.005 0.983752 22.515C0.493752 22.025 0.249169 21.4367 0.250002 20.75V15.75C0.250002 15.0625 0.495002 14.4738 0.985002 13.9838C1.475 13.4938 2.06334 13.2492 2.75 13.25H7.75C8.4375 13.25 9.02625 13.495 9.51625 13.985C10.0063 14.475 10.2508 15.0633 10.25 15.75V20.75C10.25 21.4375 10.005 22.0263 9.515 22.5163C9.025 23.0063 8.43667 23.2508 7.75 23.25H2.75ZM15.25 10.75C14.5625 10.75 13.9738 10.505 13.4838 10.015C12.9938 9.525 12.7492 8.93667 12.75 8.25V3.25C12.75 2.5625 12.995 1.97375 13.485 1.48375C13.975 0.993752 14.5633 0.749169 15.25 0.750002H20.25C20.9375 0.750002 21.5263 0.995002 22.0163 1.485C22.5063 1.975 22.7508 2.56334 22.75 3.25V8.25C22.75 8.9375 22.505 9.52625 22.015 10.0163C21.525 10.5063 20.9367 10.7508 20.25 10.75H15.25ZM15.25 23.25C14.5625 23.25 13.9738 23.005 13.4838 22.515C12.9938 22.025 12.7492 21.4367 12.75 20.75V15.75C12.75 15.0625 12.995 14.4738 13.485 13.9838C13.975 13.4938 14.5633 13.2492 15.25 13.25H20.25C20.9375 13.25 21.5263 13.495 22.0163 13.985C22.5063 14.475 22.7508 15.0633 22.75 15.75V20.75C22.75 21.4375 22.505 22.0263 22.015 22.5163C21.525 23.0063 20.9367 23.2508 20.25 23.25H15.25ZM2.75 8.25H7.75V3.25H2.75V8.25ZM15.25 8.25H20.25V3.25H15.25V8.25ZM15.25 20.75H20.25V15.75H15.25V20.75ZM2.75 20.75H7.75V15.75H2.75V20.75Z" fill="black"/>
</svg>
