<svg width="24" height="24" viewBox="0 0 24 24" fill="none" xmlns="http://www.w3.org/2000/svg">
    <path
        d="M9 7V0.750002H20.25C20.9375 0.750002 21.5263 0.995002 22.0163 1.485C22.5063 1.975 22.7508 2.56334 22.75 3.25V7H9ZM2.75 23.25C2.0625 23.25 1.47375 23.005 0.983752 22.515C0.493752 22.025 0.249169 21.4367 0.250002 20.75V9.5H6.5V23.25H2.75ZM0.250002 7V3.25C0.250002 2.5625 0.495002 1.97375 0.985002 1.48375C1.475 0.993752 2.06334 0.749169 2.75 0.750002H6.5V7H0.250002ZM11.875 23.625L8.625 20.375C8.5 20.25 8.41167 20.1146 8.36 19.9688C8.30834 19.8229 8.28209 19.6667 8.28125 19.5C8.28125 19.3333 8.3075 19.1771 8.36 19.0312C8.4125 18.8854 8.50083 18.75 8.625 18.625L11.9063 15.3438C12.1354 15.1146 12.4167 15 12.75 15C13.0833 15 13.375 15.125 13.625 15.375C13.8542 15.6042 13.9688 15.8908 13.9688 16.235C13.9688 16.5792 13.8542 16.8758 13.625 17.125L12.5625 18.25H15.25C15.9375 18.25 16.5263 18.005 17.0163 17.515C17.5063 17.025 17.7508 16.4367 17.75 15.75V13L16.5938 14.1563C16.3646 14.3854 16.0833 14.5 15.75 14.5C15.4167 14.5 15.125 14.375 14.875 14.125C14.6458 13.8958 14.5313 13.6042 14.5313 13.25C14.5313 12.8958 14.6458 12.6042 14.875 12.375L18.125 9.125C18.25 9 18.3854 8.91167 18.5312 8.86C18.6771 8.80834 18.8333 8.78209 19 8.78125C19.1667 8.78125 19.3229 8.8075 19.4688 8.86C19.6146 8.9125 19.75 9.00083 19.875 9.125L23.1563 12.4063C23.3854 12.6354 23.5 12.9167 23.5 13.25C23.5 13.5833 23.375 13.875 23.125 14.125C22.8958 14.3542 22.6042 14.4688 22.25 14.4688C21.8958 14.4688 21.6042 14.3542 21.375 14.125L20.25 13V15.75C20.25 17.125 19.7604 18.3021 18.7813 19.2813C17.8021 20.2604 16.625 20.75 15.25 20.75H12.5625L13.6563 21.875C13.8854 22.125 14 22.4167 14 22.75C14 23.0833 13.875 23.375 13.625 23.625C13.3958 23.8542 13.1042 23.9688 12.75 23.9688C12.3958 23.9688 12.1042 23.8542 11.875 23.625Z"
        fill="black" />
</svg>
