<svg width="23" height="24" viewBox="0 0 23 24" fill="none" xmlns="http://www.w3.org/2000/svg">
    <path
        d="M3.24286 24C2.48857 24 1.84263 23.7312 1.30503 23.1936C0.767431 22.656 0.499088 22.0105 0.500002 21.2571V8.91428C0.500002 8.48 0.597374 8.06857 0.792116 7.68C0.986859 7.29143 1.2552 6.97143 1.59715 6.72L9.82572 0.548571C10.0771 0.365714 10.34 0.228571 10.6143 0.137143C10.8886 0.0457141 11.1743 0 11.4714 0C11.7686 0 12.0543 0.0457141 12.3286 0.137143C12.6029 0.228571 12.8657 0.365714 13.1171 0.548571L21.3457 6.72C21.6886 6.97143 21.9574 7.29143 22.1521 7.68C22.3469 8.06857 22.4438 8.48 22.4429 8.91428V21.2571C22.4429 22.0114 22.1741 22.6574 21.6365 23.195C21.0989 23.7326 20.4534 24.0009 19.7 24H14.2143V14.4H8.72857V24H3.24286Z"
        fill="#8F8F8F" />
</svg>
